<svg xmlns="http://www.w3.org/2000/svg" width="47" height="60" viewBox="0 0 47 60"><path fill="#43A047" d="M23.465 8C15.022 8 8.154 14.728 8.154 23s6.868 15 15.311 15c8.444 0 15.312-6.728 15.312-15S31.909 8 23.465 8zm23.306 50.373l-8.927-20.378c.112-.224.23-.426.37-.562.408-.4 1.281-.66 2.127-.91 1.296-.384 2.764-.82 3.472-2.02.7-1.183.357-2.635.051-3.915-.202-.854-.41-1.736-.255-2.302.14-.522.755-1.162 1.347-1.782.937-.976 2-2.084 2-3.504 0-1.418-1.063-2.526-2-3.502-.592-.62-1.206-1.258-1.347-1.784-.155-.566.053-1.45.255-2.302.302-1.28.645-2.732-.053-3.914-.708-1.202-2.176-1.636-3.47-2.02-.846-.25-1.721-.51-2.13-.91-.408-.4-.673-1.258-.929-2.086-.39-1.268-.835-2.706-2.062-3.402-1.033-.588-2.578-.376-3.997-.052-.92.21-1.825.388-2.35.252-.535-.14-1.188-.742-1.82-1.322C26.055 1.042 24.924 0 23.477 0c-1.448 0-2.579 1.04-3.575 1.958-.633.582-1.286 1.182-1.821 1.322-.531.136-1.431-.042-2.348-.252-1.415-.322-2.962-.534-3.997.052-1.23.694-1.672 2.132-2.064 3.402-.255.828-.52 1.684-.93 2.084-.407.4-1.281.66-2.126.91-1.297.384-2.765.82-3.473 2.02-.7 1.184-.357 2.634-.053 3.916.202.854.41 1.736.255 2.304-.14.524-.755 1.162-1.347 1.782C1.062 20.474 0 21.582 0 23.002s1.062 2.526 1.999 3.502c.592.618 1.206 1.258 1.347 1.782.155.566-.053 1.45-.255 2.302-.302 1.282-.645 2.732.053 3.915.708 1.202 2.176 1.636 3.47 2.02.846.25 1.722.51 2.13.91.133.13.247.32.355.53L.082 58.605a.99.99 0 0 0 .239 1.122 1.035 1.035 0 0 0 1.157.166l9.681-4.75 7.682 4.702a1.033 1.033 0 0 0 1.49-.478l3.298-8.15 2.958 8.116c.104.286.333.508.627.608.294.1.614.066.875-.096l7.683-4.702 9.71 4.75c.144.072.3.106.456.106.017.002.031 0 .041 0A1.01 1.01 0 0 0 47 59a1.003 1.003 0 0 0-.229-.626zM35.784 37.61c-.006.012-.016.02-.02.034-.023.056-.04.12-.06.178-.135.362-.257.73-.371 1.098l-.006.016c-.194.624-.396 1.242-.656 1.694-.139.244-.29.452-.473.556-.088.05-.213.072-.34.092-.036.006-.056.022-.095.026-.525.046-1.288-.102-2.079-.282-.808-.184-1.672-.346-2.45-.336-.018 0-.034-.004-.052-.004l-.01.002c-.29.008-.568.036-.823.104-1.031.27-1.874 1.046-2.691 1.796C24.903 43.28 24.12 44 23.482 44c-.64 0-1.421-.72-2.177-1.416-.816-.75-1.66-1.526-2.69-1.796a3.563 3.563 0 0 0-.856-.102c-.05-.002-.092-.018-.145-.018-.132 0-.27.028-.404.038-.143.01-.284.022-.427.04-.21.028-.418.052-.626.092-.296.054-.59.118-.878.182-1.054.238-2.064.422-2.513.166-.264-.15-.474-.472-.654-.878-.18-.406-.33-.892-.477-1.372a19.604 19.604 0 0 0-.386-1.136c-.019-.052-.033-.108-.053-.158-.002-.008-.01-.01-.015-.018-.238-.602-.534-1.166-.986-1.608-.777-.752-1.9-1.086-2.986-1.408-.978-.29-1.993-.59-2.297-1.107-.296-.5-.06-1.498.17-2.462.257-1.092.524-2.222.238-3.27-.275-1.01-1.068-1.836-1.833-2.634-.71-.742-1.443-1.506-1.443-2.134 0-.628.732-1.394 1.445-2.136.766-.798 1.558-1.624 1.83-2.632.29-1.048.02-2.178-.238-3.272-.228-.964-.465-1.962-.17-2.462.305-.516 1.32-.816 2.298-1.108 1.086-.322 2.21-.654 2.98-1.41.772-.754 1.11-1.856 1.44-2.92.298-.958.602-1.952 1.13-2.25.454-.256 1.464-.074 2.514.166 1.133.258 2.378.488 3.338.236 1.03-.27 1.874-1.046 2.69-1.796C22.057 2.72 22.84 2 23.478 2s1.42.72 2.176 1.416c.816.75 1.66 1.526 2.69 1.796.966.252 2.207.022 3.338-.234 1.054-.24 2.064-.422 2.514-.166.528.3.835 1.292 1.13 2.25.33 1.064.668 2.166 1.44 2.92.772.754 1.894 1.088 2.98 1.41.978.29 1.993.59 2.297 1.108.296.5.06 1.498-.17 2.46-.257 1.094-.526 2.224-.238 3.27.275 1.01 1.066 1.836 1.833 2.636.71.74 1.444 1.506 1.444 2.132 0 .626-.735 1.394-1.446 2.134-.765.798-1.558 1.626-1.833 2.634-.286 1.046-.019 2.176.24 3.27.23.964.466 1.962.17 2.462-.306.517-1.319.817-2.299 1.107-1.086.322-2.209.656-2.978 1.41-.447.438-.743.998-.982 1.594z"/></svg>