<svg xmlns="http://www.w3.org/2000/svg" xmlns:xlink="http://www.w3.org/1999/xlink" width="32" height="32" viewBox="0 0 32 32"><defs><path id="76yua" d="M832 990a16 16 0 1 1 32 0 16 16 0 0 1-32 0z"/><path id="76yub" d="M848 988c-1.7 0-3.1 1.41-3.1 3.14a3.12 3.12 0 0 0 3.1 3.15c1.7 0 3.1-1.41 3.1-3.15A3.12 3.12 0 0 0 848 988zm0 7.43a4.26 4.26 0 0 1-4.22-4.29c0-2.36 1.9-4.28 4.22-4.28a4.26 4.26 0 0 1 4.22 4.28c0 2.37-1.9 4.29-4.22 4.29zm7.31-11.14h-3.1l-.43-1.18a1.69 1.69 0 0 0-1.58-1.11h-4.4c-.71 0-1.34.44-1.59 1.11l-.43 1.18h-3.1A1.7 1.7 0 0 0 839 986v10.29c0 .94.76 1.71 1.69 1.71h14.62a1.7 1.7 0 0 0 1.69-1.71V986a1.7 1.7 0 0 0-1.69-1.71z"/></defs><g><g transform="translate(-832 -974)"><use fill="#e53935" xlink:href="#76yua"/></g><g transform="translate(-832 -974)"><use fill="#fff" xlink:href="#76yub"/></g></g></svg>