<svg xmlns="http://www.w3.org/2000/svg" xmlns:xlink="http://www.w3.org/1999/xlink" width="30" height="28.4" viewBox="0 0 30 28.4"><defs><path id="uvg5a" d="M1149 1394.5c0 1-.8 1.8-1.8 1.8h-1.3c-1 0-1.8-.8-1.8-1.8 0-.3.2-.5.5-.5s.5.2.5.5c0 .4.4.8.8.8h1.3c.5 0 .8-.3.8-.8s-.4-.8-.8-.8h-1.3c-.3 0-.5-.2-.5-.5s.2-.5.5-.5h1.3c.5 0 .8-.3.8-.8s-.4-.8-.8-.8h-1.3c-.5 0-.8.3-.8.8 0 .3-.2.5-.5.5s-.6-.1-.6-.4c0-1 .8-1.8 1.8-1.8h1.3c1 0 1.8.8 1.8 1.8 0 .5-.2.9-.6 1.3.5.2.7.7.7 1.2zm1.5-7.3h-8c-.3 0-.5.2-.5.5v10c0 .3.2.5.5.5h8c.3 0 .5-.2.5-.5v-10c0-.2-.2-.5-.5-.5z"/><path id="uvg5b" d="M1127.5 1394.2c.3 0 .5.2.5.5s-.2.5-.5.5h-4c-.2 0-.4-.1-.5-.3-.1-.2 0-.4.1-.6l3.5-3.2c.3-.1.4-.3.4-.6 0-.7-.7-1.3-1.5-1.3s-1.5.6-1.5 1.3c0 .3-.2.5-.5.5s-.5-.2-.5-.5c0-1.3 1.1-2.3 2.5-2.3s2.5 1 2.5 2.3c0 .5-.2 1-.6 1.4l-2.6 2.3h2.7zm2-9h-8c-.3 0-.5.2-.5.5v12c0 .3.2.5.5.5h8c.3 0 .5-.2.5-.5v-12c0-.2-.2-.5-.5-.5z"/><path id="uvg5c" d="M1137.5 1391.2h-2c-.3 0-.5-.2-.5-.5s.2-.5.5-.5h.5v-4.4l-.1.2c-.1.2-.4.3-.7.2-.2-.1-.3-.4-.2-.7l1-2c.1-.2.3-.3.6-.3.2.1.4.3.4.5v6.5h.5c.3 0 .5.2.5.5s-.2.5-.5.5zm3-11h-9c-.3 0-.5.2-.5.5v17c0 .3.2.5.5.5h9c.3 0 .5-.2.5-.5v-17c0-.2-.2-.5-.5-.5z"/><path id="uvg5d" d="M1141.2 1373.5c-.1-.2-.3-.3-.5-.3h-3.3l-1-3.1c-.1-.4-.8-.4-1 0l-1 3.1h-3.3c-.2 0-.4.1-.5.3.1.2.2.5.3.6l2.7 1.9-1 3.1c-.1.2 0 .4.2.6.2.1.4.1.6 0l2.6-1.9 2.6 1.9c.1.1.2.1.3.1.1 0 .2 0 .3-.1.2-.1.2-.4.2-.6l-1-3.1 2.6-1.9c.2-.1.3-.4.2-.6z"/></defs><g><g transform="translate(-1121 -1369.8)"><g><use fill="#0c47a1" xlink:href="#uvg5a"/></g><g><use fill="#0c47a1" xlink:href="#uvg5b"/></g><g><use fill="#0c47a1" xlink:href="#uvg5c"/></g><g><use fill="#0c47a1" xlink:href="#uvg5d"/></g></g></g></svg>