<svg xmlns="http://www.w3.org/2000/svg" xmlns:xlink="http://www.w3.org/1999/xlink" width="30" height="30" viewBox="0 0 30 30"><defs><path id="jrpva" d="M464.5 1382.56v-1.07a.5.5 0 0 0-1 0v1.34c0 .16.08.32.22.41l1 .67a.5.5 0 0 0 .55-.83zm13.5 9.93a.5.5 0 0 1-.5.5h-5a.5.5 0 0 1-.5-.5v-4c0-.27.22-.5.5-.5h5c.28 0 .5.23.5.5zm.97-8.15v-.03l-.01-.01-2-5a.5.5 0 0 0-.46-.3h-5a.5.5 0 0 0-.5.5v17c0 .27.22.5.5.5h7a.5.5 0 0 0 .5-.5v-12c0-.06-.01-.11-.03-.16zm-22.97 8.15a.5.5 0 0 1-.5.5h-5a.5.5 0 0 1-.5-.5v-4c0-.27.22-.5.5-.5h5c.28 0 .5.23.5.5zm1 4v-17a.5.5 0 0 0-.5-.5h-5a.5.5 0 0 0-.46.32l-2 4.99v.04a.49.49 0 0 0-.04.15v12c0 .28.22.5.5.5h7a.5.5 0 0 0 .5-.5zm7-9.5a4 4 0 1 1 0-8 4 4 0 0 1 0 8zm3 11h-6v-6.5c0-.27.22-.5.5-.5h5c.28 0 .5.23.5.5zm3.94 0H470v-20h1.5a.5.5 0 0 0 .37-.84l-7.5-8a.51.51 0 0 0-.73 0l-7.5 8a.5.5 0 0 0 .36.84h1.5v20h-1.5a.5.5 0 0 0 0 1h14.44a.5.5 0 1 0 0-1z"/></defs><g><g transform="translate(-449 -1369)"><use fill="#0c47a1" xlink:href="#jrpva"/></g></g></svg>