<svg xmlns="http://www.w3.org/2000/svg" xmlns:xlink="http://www.w3.org/1999/xlink" width="20" height="40" viewBox="0 0 20 40"><defs><path id="iwfea" d="M190.25 805c0-2.68-1.51-4.08-2.5-5.2v-17.3a3.75 3.75 0 0 0-7.5 0v17.3c-1 1.13-2.49 2.51-2.5 5.17a6.28 6.28 0 0 0 6.2 6.28h.05c3.45 0 6.25-2.8 6.25-6.25zm1.25-6.61a10 10 0 1 1-15 0V782.5a7.5 7.5 0 0 1 15 0zM189 805a5 5 0 1 1-7.5-4.33v-8.17a2.5 2.5 0 0 1 5 0v8.17A5 5 0 0 1 189 805z"/></defs><g><g transform="translate(-174 -775)"><use fill="#0c47a1" xlink:href="#iwfea"/></g></g></svg>