<svg xmlns="http://www.w3.org/2000/svg" width="416" height="118" viewBox="0 0 416 118"><g fill="#B0BEC5" fill-rule="evenodd"><path d="M321.818 118h-217.52C66.563 97.917 55.475 47.673 0 47.673v-9.249c69.333 0 69.333 50.887 138.667 50.887C208 89.31 208 75.414 277.333 75.414 346.667 75.414 346.667 0 416 0v59.478c-50.194 0-64.05 37.705-94.182 58.522z" opacity=".1"/><path d="M0 118V29c69.333 0 69.333 78.478 138.667 78.478 69.333 0 69.333 5.268 138.666 5.268 69.334 0 69.334-71.941 138.667-71.941V118H0z" opacity=".15"/></g></svg>