<svg xmlns="http://www.w3.org/2000/svg" xmlns:xlink="http://www.w3.org/1999/xlink" width="416" height="131.42" viewBox="0 0 416 131.42"><defs><path id="5qsga" d="M592 822.67c69.33 0 69.33 78.48 138.67 78.48 69.33 0 69.33 5.27 138.66 5.27 69.34 0 69.34-71.94 138.67-71.94V775c-69.33 0-69.33 75.41-138.67 75.41-69.33 0-69.33 13.9-138.66 13.9-69.34 0-69.34-50.89-138.67-50.89z"/><path id="5qsgb" d="M592 899.7c69.33 0 69.33-4.05 138.67-4.05 69.33 0 69.33 6.86 138.66 6.86 69.34 0 69.34-.49 138.67-.49V815.8c-69.33 0-69.33 71.95-138.67 71.95-69.33 0-69.33-5.27-138.66-5.27-69.34 0-69.34-78.48-138.67-78.48z"/></defs><g><g transform="translate(-592 -775)"><use fill="#fff" fill-opacity=".15" xlink:href="#5qsga"/></g><g transform="translate(-592 -775)"><use fill="#fff" fill-opacity=".2" xlink:href="#5qsgb"/></g></g></svg>