<svg xmlns="http://www.w3.org/2000/svg" width="40" height="40" viewBox="0 0 40 40"><path fill="#B0BEC5" d="M40 20C40 8.952 31.048 0 20 0S0 8.952 0 20s8.952 20 20 20 20-8.952 20-20zM20 37.42c-9.573 0-17.42-7.75-17.42-17.42 0-9.573 7.75-17.42 17.42-17.42 9.573 0 17.42 7.75 17.42 17.42 0 9.573-7.75 17.42-17.42 17.42zm-1.008-7.46L9.71 20.685a.969.969 0 0 1 0-1.37l9.282-9.275a.969.969 0 0 1 1.37 0l.557.557a.964.964 0 0 1-.016 1.379l-6.895 6.653h15.347a.97.97 0 0 1 .968.968v.806a.97.97 0 0 1-.968.968H14.008l6.903 6.653c.387.38.395 1 .016 1.38l-.556.556a.978.978 0 0 1-1.38 0z"/></svg>