<svg xmlns="http://www.w3.org/2000/svg" width="40" height="40" viewBox="0 0 40 40"><path fill="#B0BEC5" d="M0 20c0 11.048 8.952 20 20 20s20-8.952 20-20S31.048 0 20 0 0 8.952 0 20zM20 2.58c9.573 0 17.42 7.75 17.42 17.42 0 9.573-7.75 17.42-17.42 17.42-9.573 0-17.42-7.75-17.42-17.42 0-9.573 7.75-17.42 17.42-17.42zm1.008 7.46l9.282 9.275a.969.969 0 0 1 0 1.37l-9.282 9.275a.969.969 0 0 1-1.37 0l-.557-.557a.964.964 0 0 1 .016-1.379L26 21.371H10.645a.97.97 0 0 1-.968-.968v-.806a.97.97 0 0 1 .968-.968h15.347l-6.903-6.653a.971.971 0 0 1-.016-1.38l.556-.556a.978.978 0 0 1 1.38 0z"/></svg>