<svg id="forms.fw-Page_201" preserveAspectRatio="none" width="406" height="16" data-name="forms.fw-Page%201" xmlns="http://www.w3.org/2000/svg" viewBox="0 0 406 16"><defs><style>.cls-1{fill:#fff;}.cls-2{fill:#ccc;}.cls-3{fill:#dd2d01;}.cls-4{fill:#dd2c00;}.cls-5{fill:#ddd;}.cls-6{fill:#5cadce;}.cls-7{fill:#dd2f03;}.cls-8{fill:#dd2e02;}</style></defs><title>Artboard 1</title><rect class="cls-1" x="0.5" y="0.5" width="15" height="15"/><path class="cls-2" d="M15,1V15H1V1H15m1-1H0V16H16V0Z"/><rect class="cls-1" x="156.5" y="0.5" width="15" height="15"/><path class="cls-3" d="M171,1V15H157V1h14m1-1H156V16h16V0Z"/><rect class="cls-1" x="26.5" y="0.5" width="15" height="15"/><path class="cls-2" d="M41,1V15H27V1H41m1-1H26V16H42V0Z"/><rect class="cls-1" x="130.5" y="0.5" width="15" height="15"/><path class="cls-4" d="M145,1V15H131V1h14m1-1H130V16h16V0Z"/><rect class="cls-1" x="78.5" y="0.5" width="15" height="15"/><path class="cls-5" d="M93,1V15H79V1H93m1-1H78V16H94V0Z"/><g id="Ellipse"><circle class="cls-1" cx="216" cy="8" r="7.5"/><path class="cls-2" d="M216,1a7,7,0,1,1-7,7,7,7,0,0,1,7-7m0-1a8,8,0,1,0,8,8,8,8,0,0,0-8-8Z"/></g><g id="Ellipse2"><circle class="cls-1" cx="242" cy="8" r="7.5"/><path class="cls-6" d="M242,1a7,7,0,1,1-7,7,7,7,0,0,1,7-7m0-1a8,8,0,1,0,8,8,8,8,0,0,0-8-8Z"/></g><g id="Ellipse3"><circle class="cls-1" cx="294" cy="8" r="7.5"/><path class="cls-5" d="M294,1a7,7,0,1,1-7,7,7,7,0,0,1,7-7m0-1a8,8,0,1,0,8,8,8,8,0,0,0-8-8Z"/></g><g id="Ellipse4"><circle class="cls-1" cx="372" cy="8" r="7.5"/><path class="cls-7" d="M372,1a7,7,0,1,1-7,7,7,7,0,0,1,7-7m0-1a8,8,0,1,0,8,8,8,8,0,0,0-8-8Z"/></g><g id="Ellipse5"><circle class="cls-1" cx="268" cy="8" r="7.5"/><path class="cls-6" d="M268,1a7,7,0,1,1-7,7,7,7,0,0,1,7-7m0-1a8,8,0,1,0,8,8,8,8,0,0,0-8-8Z"/></g><g id="Ellipse6"><circle class="cls-1" cx="346" cy="8" r="7.5"/><path class="cls-7" d="M346,1a7,7,0,1,1-7,7,7,7,0,0,1,7-7m0-1a8,8,0,1,0,8,8,8,8,0,0,0-8-8Z"/></g><g id="Ellipse7"><circle class="cls-1" cx="320" cy="8" r="7.5"/><path class="cls-5" d="M320,1a7,7,0,1,1-7,7,7,7,0,0,1,7-7m0-1a8,8,0,1,0,8,8,8,8,0,0,0-8-8Z"/></g><g id="Ellipse8"><circle class="cls-1" cx="398" cy="8" r="7.5"/><path class="cls-7" d="M398,1a7,7,0,1,1-7,7,7,7,0,0,1,7-7m0-1a8,8,0,1,0,8,8,8,8,0,0,0-8-8Z"/></g><path id="Ellipse9" class="cls-6" d="M264,8a4,4,0,1,1,4,4A4,4,0,0,1,264,8Z"/><path id="Ellipse10" class="cls-5" d="M316,8a4,4,0,1,1,4,4A4,4,0,0,1,316,8Z"/><path id="Ellipse11" class="cls-7" d="M394,8a4,4,0,1,1,4,4A4,4,0,0,1,394,8Z"/><rect class="cls-1" x="52.5" y="0.5" width="15" height="15"/><path class="cls-6" d="M67,1V15H53V1H67m1-1H52V16H68V0Z"/><rect class="cls-1" x="182.5" y="0.5" width="15" height="15"/><path class="cls-8" d="M197,1V15H183V1h14m1-1H182V16h16V0Z"/><rect class="cls-1" x="104.5" y="0.5" width="15" height="15"/><path class="cls-5" d="M119,1V15H105V1h14m1-1H104V16h16V0Z"/><path class="cls-6" d="M65.94,5.79a.72.72,0,0,0-.22-.51l-1-1a.77.77,0,0,0-1,0l-5,4.91L56.36,7a.75.75,0,0,0-1,0l-1,1a.71.71,0,0,0,0,1L57,11.71l1,1a.75.75,0,0,0,1,0l1-1L65.72,6.3a.72.72,0,0,0,.22-.51Z"/><path class="cls-3" d="M195.94,5.79a.72.72,0,0,0-.22-.51l-1-1a.77.77,0,0,0-1,0l-5,4.91L186.36,7a.75.75,0,0,0-1,0l-1,1a.71.71,0,0,0,0,1L187,11.71l1,1a.75.75,0,0,0,1,0l1-1,5.55-5.41a.72.72,0,0,0,.22-.51Z"/><path class="cls-5" d="M117.94,5.79a.72.72,0,0,0-.22-.51l-1-1a.77.77,0,0,0-1,0l-5,4.91L108.36,7a.75.75,0,0,0-1,0l-1,1a.71.71,0,0,0,0,1L109,11.71l1,1a.75.75,0,0,0,1,0l1-1,5.55-5.41a.72.72,0,0,0,.22-.51Z"/></svg>