<svg xmlns="http://www.w3.org/2000/svg" xmlns:xlink="http://www.w3.org/1999/xlink" width="16" height="16" viewBox="0 0 16 16"><defs><path id="xrtia" d="M691 1377a8 8 0 1 1 16 0 8 8 0 0 1-16 0z"/><path id="xrtib" d="M702.25 1375h-1.845a.375.375 0 0 0-.265.64l.506.506-1.146 1.147-1.146-1.146a.5.5 0 0 0-.707 0l-1.074 1.073a.25.25 0 0 0 0 .353l.354.354a.25.25 0 0 0 .353 0l.72-.72 1.146 1.146a.5.5 0 0 0 .707 0l1.5-1.5.507.507c.236.236.64.069.64-.265v-1.845a.25.25 0 0 0-.25-.25zm.5 5H696v-6.75a.25.25 0 0 0-.25-.25h-.5a.25.25 0 0 0-.25.25v7.25a.5.5 0 0 0 .5.5h7.25a.25.25 0 0 0 .25-.25v-.5a.25.25 0 0 0-.25-.25z"/></defs><g><g transform="translate(-691 -1369)"><g><use fill="#263238" xlink:href="#xrtia"/></g><g><g><use fill="#fff" xlink:href="#xrtib"/></g></g></g></g></svg>