<?xml version="1.0" encoding="UTF-8"?><!DOCTYPE svg PUBLIC "-//W3C//DTD SVG 1.1//EN" "http://www.w3.org/Graphics/SVG/1.1/DTD/svg11.dtd"><svg xmlns="http://www.w3.org/2000/svg" xmlns:xlink="http://www.w3.org/1999/xlink"><defs><path id="arrow-circle-neutral-a" d="M853 1341a8 8 0 1 1 16 0 8 8 0 0 1-16 0z"/><path id="arrow-circle-neutral-b" d="M857 1341a1 1 0 0 1 1-1h6a1 1 0 0 1 0 2h-6a1 1 0 0 1-1-1z"/><path id="badge-circle-a" d="M669 1579c0-8.837 7.163-16 16-16s16 7.163 16 16-7.163 16-16 16-16-7.163-16-16z"/><path id="badge-circle-b" d="M682.066 1576.508c0 1.65 1.311 2.989 2.928 2.989s2.928-1.339 2.928-2.99c0-1.65-1.311-2.988-2.928-2.988s-2.928 1.338-2.928 2.989zm3.594 5.287a1.232 1.232 0 0 0-1.322 0 1.234 1.234 0 0 1-1.546-.181c-.458-.467-.51-.437-1.206-.627a1.264 1.264 0 0 1-.885-.902c-.233-.884-.172-.777-.807-1.424a1.293 1.293 0 0 1-.324-1.233c.233-.884.233-.761 0-1.644-.116-.44.008-.91.324-1.232.635-.647.575-.54.807-1.424.116-.44.453-.784.885-.902.867-.237.763-.175 1.397-.822a1.235 1.235 0 0 1 1.21-.33c.867.236.746.236 1.613 0 .432-.118.893.008 1.209.33.635.647.53.585 1.397.822.432.118.77.462.885.902.233.884.172.777.807 1.424.316.322.44.792.324 1.232-.233.885-.232.761 0 1.645.116.44-.008.91-.324 1.232-.635.647-.574.54-.807 1.424-.115.44-.453.784-.885.902-.676.185-.73.143-1.206.627a1.234 1.234 0 0 1-1.546.181zm5.27 3.209a.499.499 0 0 1-.48.687l-1.637-.063-1.127 1.194a.497.497 0 0 1-.822-.155l-1.618-3.98c.337.189.711.3 1.098.3.606 0 1.176-.237 1.605-.667.27-.27.126-.194.78-.37.296-.08.556-.232.791-.415zm-7.276-2.018c.387 0 .76-.11 1.098-.299l-1.619 3.98a.497.497 0 0 1-.821.155l-1.127-1.194-1.638.063a.499.499 0 0 1-.48-.687l1.41-3.47c.236.184.496.337.791.416.652.175.511.099.781.37.429.43.999.666 1.605.666z"/><path id="check-circle-a" d="M536.177 1307.66l4.452-4.452a.387.387 0 0 0 0-.547l-.548-.548a.387.387 0 0 0-.547 0l-3.63 3.63-1.696-1.694a.387.387 0 0 0-.547 0l-.548.547a.387.387 0 0 0 0 .548l2.516 2.516a.387.387 0 0 0 .548 0zM545 1305a8 8 0 1 1-16 0 8 8 0 0 1 16 0z"/><style>.cls-1{fill:#fff}.cls-2{fill:#ccc}.cls-3{fill:#dd2d01}.cls-4{fill:#dd2c00}.cls-5{fill:#ddd}.cls-6{fill:#5cadce}.cls-7{fill:#dd2f03}.cls-8{fill:#dd2e02}</style><path id="graph-circle-a" d="M691 1377a8 8 0 1 1 16 0 8 8 0 0 1-16 0z"/><path id="graph-circle-b" d="M702.25 1375h-1.845a.375.375 0 0 0-.265.64l.506.506-1.146 1.147-1.146-1.146a.5.5 0 0 0-.707 0l-1.074 1.073a.25.25 0 0 0 0 .353l.354.354a.25.25 0 0 0 .353 0l.72-.72 1.146 1.146a.5.5 0 0 0 .707 0l1.5-1.5.507.507c.236.236.64.069.64-.265v-1.845a.25.25 0 0 0-.25-.25zm.5 5H696v-6.75a.25.25 0 0 0-.25-.25h-.5a.25.25 0 0 0-.25.25v7.25a.5.5 0 0 0 .5.5h7.25a.25.25 0 0 0 .25-.25v-.5a.25.25 0 0 0-.25-.25z"/><path id="pdf-a" d="M594.84 463.4c1.68-.11 1.95.27 1.78.38 0 0-.24.28-1.78-.37zM600 454v.25h-5.33V449h.25a1 1 0 0 1 .7.29l4.09 4.02c.19.18.29.43.29.69zm-7.78 6.4c.19-.76.48-1.9.26-2.63-.2-1.2-1.77-1.09-2-.28-.2.75 0 1.8.34 3.16a38.25 38.25 0 0 1-1.7 3.52c-1.13.57-3.07 1.83-2.27 2.8.23.27.66.4.9.4.74 0 1.48-.74 2.54-2.53 1.07-.35 2.25-.79 3.29-.96.9.49 1.96.8 2.67.8 1.21 0 1.3-1.3.82-1.78-.58-.55-2.27-.4-3.07-.3a4.13 4.13 0 0 1-1.78-2.2zm2.11-4.84H600v13.46c0 .54-.45.98-1 .98h-14c-.55 0-1-.44-1-.98v-19.04c0-.54.45-.98 1-.98h8.33v5.58a1 1 0 0 0 1 .98zm-5.29 9.35c-.9 1.43-1.45 1.68-1.45 1.65.24-.65 1.17-1.4 1.45-1.65zm3.9-1.8c-.99.2-1.85.61-2.62.9.47-.8.87-1.74 1.19-2.57.4.71.9 1.28 1.44 1.67zm-1.36-3.6c-.2-.66-.2-1.93-.08-1.93.35 0 .31 1.51.08 1.92z"/><path id="play-a" d="M2591 478.5l-50 34.5v-69z"/><path id="search-a" d="M626.5 1494.5a5 5 0 1 1 0-10 5 5 0 0 1 0 10zm9.39 3.15l-3.8-3.8a.37.37 0 0 0-.26-.1h-.41a6.48 6.48 0 0 0-4.92-10.75 6.5 6.5 0 1 0 4.25 11.42v.41c0 .1.04.2.1.27l3.8 3.79c.15.15.39.15.53 0l.71-.7a.38.38 0 0 0 0-.54z"/><path id="teplomer-a" d="M392 811.25h-.05a6.28 6.28 0 0 1-6.2-6.28c.01-2.66 1.5-4.04 2.5-5.17v-17.3a3.75 3.75 0 0 1 7.5 0v17.3c.99 1.12 2.5 2.52 2.5 5.2 0 3.45-2.8 6.25-6.25 6.25zm7.5-28.75a7.5 7.5 0 0 0-15 0v15.89a9.96 9.96 0 0 0-2.5 6.56A10.03 10.03 0 0 0 392 815a10 10 0 0 0 7.5-16.61z"/><path id="trophy-circle-a" d="M691 1449a8 8 0 1 1 16 0 8 8 0 0 1-16 0z"/><path id="trophy-circle-b" d="M699.991 1448.299l.164.962a.209.209 0 0 1-.303.223l-.85-.455-.851.455a.209.209 0 0 1-.302-.223l.163-.962-.687-.68a.213.213 0 0 1 .116-.362l.951-.141.426-.875a.207.207 0 0 1 .373 0l.425.875.952.14c.166.027.234.24.11.362zm2.898-.768c0 .355-.51.946-1.337 1.234.122-.44.205-.942.222-1.515h1.115zm-7.778 0v-.281h1.115c.017.573.1 1.076.222 1.515-.825-.288-1.337-.877-1.337-1.234zm8.472-1.406h-1.805v-.703a.418.418 0 0 0-.417-.422h-4.722a.418.418 0 0 0-.417.422v.703h-1.805a.418.418 0 0 0-.417.422v.984c0 1.17 1.352 2.315 2.984 2.503.546.916 1.183 1.294 1.183 1.294v1.266h-.834c-.613 0-1.11.364-1.11.984v.211a.21.21 0 0 0 .208.211h5.138a.21.21 0 0 0 .209-.21v-.212c0-.62-.498-.984-1.111-.984h-.834v-1.266s.637-.378 1.183-1.294c1.637-.19 2.984-1.337 2.984-2.503v-.984a.418.418 0 0 0-.417-.422z"/><path id="user-a" d="M1471 40.26a5.42 5.42 0 1 1 0 10.84 5.42 5.42 0 0 1 0-10.84zm-6.1 11.1l1.57-.39a6.92 6.92 0 0 0 4.53 1.68c1.68 0 3.27-.6 4.53-1.68l1.57.4a3.2 3.2 0 0 1 2.4 2.72 10.44 10.44 0 0 1-17 0 3.2 3.2 0 0 1 2.4-2.73zM1471 60a12 12 0 1 0 0-24 12 12 0 0 0 0 24z"/></defs><symbol id="angle-down" viewBox="0 0 1792 1792"><path d="M1395 736q0 13-10 23l-466 466q-10 10-23 10t-23-10L407 759q-10-10-10-23t10-23l50-50q10-10 23-10t23 10l393 393 393-393q10-10 23-10t23 10l50 50q10 10 10 23z"/></symbol><symbol id="arrow-circle-down" viewBox="0 0 1792 1792"><path d="M1412 897q0-27-18-45l-91-91q-18-18-45-18t-45 18l-189 189V448q0-26-19-45t-45-19H832q-26 0-45 19t-19 45v502L579 761q-19-19-45-19t-45 19l-91 91q-18 18-18 45t18 45l362 362 91 91q18 18 45 18t45-18l91-91 362-362q18-18 18-45zm252-1q0 209-103 385.5T1281.5 1561 896 1664t-385.5-103T231 1281.5 128 896t103-385.5T510.5 231 896 128t385.5 103T1561 510.5 1664 896z"/></symbol><symbol id="arrow-circle-neutral" viewBox="0 0 16 16"><use fill="#b0bec5" xlink:href="#arrow-circle-neutral-a" transform="translate(-853 -1333)"/><use fill="#fff" xlink:href="#arrow-circle-neutral-b" transform="translate(-853 -1333)"/></symbol><symbol id="arrow-circle-up" viewBox="0 0 1792 1792"><path d="M1412 895q0-27-18-45l-362-362-91-91q-18-18-45-18t-45 18l-91 91-362 362q-18 18-18 45t18 45l91 91q18 18 45 18t45-18l189-189v502q0 26 19 45t45 19h128q26 0 45-19t19-45V842l189 189q19 19 45 19t45-19l91-91q18-18 18-45zm252 1q0 209-103 385.5T1281.5 1561 896 1664t-385.5-103T231 1281.5 128 896t103-385.5T510.5 231 896 128t385.5 103T1561 510.5 1664 896z"/></symbol><symbol id="arrow-left" viewBox="0 0 40 40"><path fill="#B0BEC5" d="M40 20C40 8.952 31.048 0 20 0S0 8.952 0 20s8.952 20 20 20 20-8.952 20-20zM20 37.42c-9.573 0-17.42-7.75-17.42-17.42 0-9.573 7.75-17.42 17.42-17.42 9.573 0 17.42 7.75 17.42 17.42 0 9.573-7.75 17.42-17.42 17.42zm-1.008-7.46L9.71 20.685a.969.969 0 0 1 0-1.37l9.282-9.275a.969.969 0 0 1 1.37 0l.557.557a.964.964 0 0 1-.016 1.379l-6.895 6.653h15.347a.97.97 0 0 1 .968.968v.806a.97.97 0 0 1-.968.968H14.008l6.903 6.653c.387.38.395 1 .016 1.38l-.556.556a.978.978 0 0 1-1.38 0z"/></symbol><symbol id="arrow-right" viewBox="0 0 40 40"><path fill="#B0BEC5" d="M0 20c0 11.048 8.952 20 20 20s20-8.952 20-20S31.048 0 20 0 0 8.952 0 20zM20 2.58c9.573 0 17.42 7.75 17.42 17.42 0 9.573-7.75 17.42-17.42 17.42-9.573 0-17.42-7.75-17.42-17.42 0-9.573 7.75-17.42 17.42-17.42zm1.008 7.46l9.282 9.275a.969.969 0 0 1 0 1.37l-9.282 9.275a.969.969 0 0 1-1.37 0l-.557-.557a.964.964 0 0 1 .016-1.379L26 21.371H10.645a.97.97 0 0 1-.968-.968v-.806a.97.97 0 0 1 .968-.968h15.347l-6.903-6.653a.971.971 0 0 1-.016-1.38l.556-.556a.978.978 0 0 1 1.38 0z"/></symbol><symbol id="badge-circle" viewBox="0 0 32 32"><use fill="#263238" xlink:href="#badge-circle-a" transform="translate(-669 -1563)"/><use fill="#fff" xlink:href="#badge-circle-b" transform="translate(-669 -1563)"/></symbol><symbol id="check-circle" viewBox="0 0 16 16"><use fill="#263238" xlink:href="#check-circle-a" transform="translate(-529 -1297)"/></symbol><symbol id="external-link" viewBox="0 0 1792 1792"><path d="M1408 928v320q0 119-84.5 203.5T1120 1536H288q-119 0-203.5-84.5T0 1248V416q0-119 84.5-203.5T288 128h704q14 0 23 9t9 23v64q0 14-9 23t-23 9H288q-66 0-113 47t-47 113v832q0 66 47 113t113 47h832q66 0 113-47t47-113V928q0-14 9-23t23-9h64q14 0 23 9t9 23zm384-864v512q0 26-19 45t-45 19-45-19l-176-176-652 652q-10 10-23 10t-23-10L695 983q-10-10-10-23t10-23l652-652-176-176q-19-19-19-45t19-45 45-19h512q26 0 45 19t19 45z"/></symbol><symbol id="facebook-f" viewBox="0 0 1792 1792"><path d="M1343 12v264h-157q-86 0-116 36t-30 108v189h293l-39 296h-254v759H734V905H479V609h255V391q0-186 104-288.5T1115 0q147 0 228 12z"/></symbol><symbol id="forms" viewBox="0 0 406 16" preserveAspectRatio="none"><title>Artboard 1</title><path class="cls-1" d="M.5.5h15v15H.5z"/><path class="cls-2" d="M15 1v14H1V1h14m1-1H0v16h16V0z"/><path class="cls-1" d="M156.5.5h15v15h-15z"/><path class="cls-3" d="M171 1v14h-14V1h14m1-1h-16v16h16V0z"/><path class="cls-1" d="M26.5.5h15v15h-15z"/><path class="cls-2" d="M41 1v14H27V1h14m1-1H26v16h16V0z"/><path class="cls-1" d="M130.5.5h15v15h-15z"/><path class="cls-4" d="M145 1v14h-14V1h14m1-1h-16v16h16V0z"/><path class="cls-1" d="M78.5.5h15v15h-15z"/><path class="cls-5" d="M93 1v14H79V1h14m1-1H78v16h16V0z"/><g id="Ellipse"><circle class="cls-1" cx="216" cy="8" r="7.5"/><path class="cls-2" d="M216 1a7 7 0 1 1-7 7 7 7 0 0 1 7-7m0-1a8 8 0 1 0 8 8 8 8 0 0 0-8-8z"/></g><g id="Ellipse2"><circle class="cls-1" cx="242" cy="8" r="7.5"/><path class="cls-6" d="M242 1a7 7 0 1 1-7 7 7 7 0 0 1 7-7m0-1a8 8 0 1 0 8 8 8 8 0 0 0-8-8z"/></g><g id="Ellipse3"><circle class="cls-1" cx="294" cy="8" r="7.5"/><path class="cls-5" d="M294 1a7 7 0 1 1-7 7 7 7 0 0 1 7-7m0-1a8 8 0 1 0 8 8 8 8 0 0 0-8-8z"/></g><g id="Ellipse4"><circle class="cls-1" cx="372" cy="8" r="7.5"/><path class="cls-7" d="M372 1a7 7 0 1 1-7 7 7 7 0 0 1 7-7m0-1a8 8 0 1 0 8 8 8 8 0 0 0-8-8z"/></g><g id="Ellipse5"><circle class="cls-1" cx="268" cy="8" r="7.5"/><path class="cls-6" d="M268 1a7 7 0 1 1-7 7 7 7 0 0 1 7-7m0-1a8 8 0 1 0 8 8 8 8 0 0 0-8-8z"/></g><g id="Ellipse6"><circle class="cls-1" cx="346" cy="8" r="7.5"/><path class="cls-7" d="M346 1a7 7 0 1 1-7 7 7 7 0 0 1 7-7m0-1a8 8 0 1 0 8 8 8 8 0 0 0-8-8z"/></g><g id="Ellipse7"><circle class="cls-1" cx="320" cy="8" r="7.5"/><path class="cls-5" d="M320 1a7 7 0 1 1-7 7 7 7 0 0 1 7-7m0-1a8 8 0 1 0 8 8 8 8 0 0 0-8-8z"/></g><g id="Ellipse8"><circle class="cls-1" cx="398" cy="8" r="7.5"/><path class="cls-7" d="M398 1a7 7 0 1 1-7 7 7 7 0 0 1 7-7m0-1a8 8 0 1 0 8 8 8 8 0 0 0-8-8z"/></g><path id="Ellipse9" class="cls-6" d="M264 8a4 4 0 1 1 4 4 4 4 0 0 1-4-4z"/><path id="Ellipse10" class="cls-5" d="M316 8a4 4 0 1 1 4 4 4 4 0 0 1-4-4z"/><path id="Ellipse11" class="cls-7" d="M394 8a4 4 0 1 1 4 4 4 4 0 0 1-4-4z"/><path class="cls-1" d="M52.5.5h15v15h-15z"/><path class="cls-6" d="M67 1v14H53V1h14m1-1H52v16h16V0z"/><path class="cls-1" d="M182.5.5h15v15h-15z"/><path class="cls-8" d="M197 1v14h-14V1h14m1-1h-16v16h16V0z"/><path class="cls-1" d="M104.5.5h15v15h-15z"/><path class="cls-5" d="M119 1v14h-14V1h14m1-1h-16v16h16V0z"/><path class="cls-6" d="M65.94 5.79a.72.72 0 0 0-.22-.51l-1-1a.77.77 0 0 0-1 0l-5 4.91L56.36 7a.75.75 0 0 0-1 0l-1 1a.71.71 0 0 0 0 1L57 11.71l1 1a.75.75 0 0 0 1 0l1-1 5.72-5.41a.72.72 0 0 0 .22-.51z"/><path class="cls-3" d="M195.94 5.79a.72.72 0 0 0-.22-.51l-1-1a.77.77 0 0 0-1 0l-5 4.91L186.36 7a.75.75 0 0 0-1 0l-1 1a.71.71 0 0 0 0 1l2.64 2.71 1 1a.75.75 0 0 0 1 0l1-1 5.55-5.41a.72.72 0 0 0 .22-.51z"/><path class="cls-5" d="M117.94 5.79a.72.72 0 0 0-.22-.51l-1-1a.77.77 0 0 0-1 0l-5 4.91L108.36 7a.75.75 0 0 0-1 0l-1 1a.71.71 0 0 0 0 1l2.64 2.71 1 1a.75.75 0 0 0 1 0l1-1 5.55-5.41a.72.72 0 0 0 .22-.51z"/></symbol><symbol id="graph-circle" viewBox="0 0 16 16"><use fill="#263238" xlink:href="#graph-circle-a" transform="translate(-691 -1369)"/><use fill="#fff" xlink:href="#graph-circle-b" transform="translate(-691 -1369)"/></symbol><symbol id="image" viewBox="0 0 512 512"><path d="M464 64H48C21.49 64 0 85.49 0 112v288c0 26.51 21.49 48 48 48h416c26.51 0 48-21.49 48-48V112c0-26.51-21.49-48-48-48zm-6 336H54a6 6 0 0 1-6-6V118a6 6 0 0 1 6-6h404a6 6 0 0 1 6 6v276a6 6 0 0 1-6 6zM128 152c-22.091 0-40 17.909-40 40s17.909 40 40 40 40-17.909 40-40-17.909-40-40-40zM96 352h320v-80l-87.515-87.515c-4.686-4.686-12.284-4.686-16.971 0L192 304l-39.515-39.515c-4.686-4.686-12.284-4.686-16.971 0L96 304v48z"/></symbol><symbol id="info-circle" viewBox="0 0 512 512"><path d="M256 8C119.043 8 8 119.083 8 256c0 136.997 111.043 248 248 248s248-111.003 248-248C504 119.083 392.957 8 256 8zm0 110c23.196 0 42 18.804 42 42s-18.804 42-42 42-42-18.804-42-42 18.804-42 42-42zm56 254c0 6.627-5.373 12-12 12h-88c-6.627 0-12-5.373-12-12v-24c0-6.627 5.373-12 12-12h12v-64h-12c-6.627 0-12-5.373-12-12v-24c0-6.627 5.373-12 12-12h64c6.627 0 12 5.373 12 12v100h12c6.627 0 12 5.373 12 12v24z"/></symbol><symbol id="instagram" viewBox="0 0 448 512"><path d="M224.1 141c-63.6 0-114.9 51.3-114.9 114.9s51.3 114.9 114.9 114.9S339 319.5 339 255.9 287.7 141 224.1 141zm0 189.6c-41.1 0-74.7-33.5-74.7-74.7s33.5-74.7 74.7-74.7 74.7 33.5 74.7 74.7-33.6 74.7-74.7 74.7zm146.4-194.3c0 14.9-12 26.8-26.8 26.8-14.9 0-26.8-12-26.8-26.8s12-26.8 26.8-26.8 26.8 12 26.8 26.8zm76.1 27.2c-1.7-35.9-9.9-67.7-36.2-93.9-26.2-26.2-58-34.4-93.9-36.2-37-2.1-147.9-2.1-184.9 0-35.8 1.7-67.6 9.9-93.9 36.1s-34.4 58-36.2 93.9c-2.1 37-2.1 147.9 0 184.9 1.7 35.9 9.9 67.7 36.2 93.9s58 34.4 93.9 36.2c37 2.1 147.9 2.1 184.9 0 35.9-1.7 67.7-9.9 93.9-36.2 26.2-26.2 34.4-58 36.2-93.9 2.1-37 2.1-147.8 0-184.8zM398.8 388c-7.8 19.6-22.9 34.7-42.6 42.6-29.5 11.7-99.5 9-132.1 9s-102.7 2.6-132.1-9c-19.6-7.8-34.7-22.9-42.6-42.6-11.7-29.5-9-99.5-9-132.1s-2.6-102.7 9-132.1c7.8-19.6 22.9-34.7 42.6-42.6 29.5-11.7 99.5-9 132.1-9s102.7-2.6 132.1 9c19.6 7.8 34.7 22.9 42.6 42.6 11.7 29.5 9 99.5 9 132.1s2.7 102.7-9 132.1z"/></symbol><symbol id="pdf" viewBox="0 0 16 21"><use fill="#0c47a1" xlink:href="#pdf-a" transform="translate(-584 -449)"/></symbol><symbol id="play" viewBox="0 0 53 72"><use fill="#fff" xlink:href="#play-a" transform="translate(-2540 -443)"/></symbol><symbol id="plus-circle" viewBox="0 0 512 512"><path d="M384 240v32c0 6.6-5.4 12-12 12h-88v88c0 6.6-5.4 12-12 12h-32c-6.6 0-12-5.4-12-12v-88h-88c-6.6 0-12-5.4-12-12v-32c0-6.6 5.4-12 12-12h88v-88c0-6.6 5.4-12 12-12h32c6.6 0 12 5.4 12 12v88h88c6.6 0 12 5.4 12 12zm120 16c0 137-111 248-248 248S8 393 8 256 119 8 256 8s248 111 248 248zm-48 0c0-110.5-89.5-200-200-200S56 145.5 56 256s89.5 200 200 200 200-89.5 200-200z"/></symbol><symbol id="search" viewBox="0 0 16 16"><use fill="#263138" xlink:href="#search-a" transform="translate(-620 -1483)"/></symbol><symbol id="teplomer" viewBox="0 0 20 40"><use fill="#cfd8dc" xlink:href="#teplomer-a" transform="translate(-382 -775)"/></symbol><symbol id="trophy-circle" viewBox="0 0 16 16"><use fill="#263238" xlink:href="#trophy-circle-a" transform="translate(-691 -1441)"/><use fill="#fff" xlink:href="#trophy-circle-b" transform="translate(-691 -1441)"/></symbol><symbol id="user" viewBox="0 0 24 24"><use fill="#cfd8dc" xlink:href="#user-a" transform="translate(-1459 -36)"/></symbol><symbol id="youtube-play" viewBox="0 0 1792 1792"><path d="M711 1128l484-250-484-253v503zm185-862q168 0 324.5 4.5T1450 280l73 4q1 0 17 1.5t23 3 23.5 4.5 28.5 8 28 13 31 19.5 29 26.5q6 6 15.5 18.5t29 58.5 26.5 101q8 64 12.5 136.5T1792 788v176q1 145-18 290-7 55-25 99.5t-32 61.5l-14 17q-14 15-29 26.5t-31 19-28 12.5-28.5 8-24 4.5-23 3-16.5 1.5q-251 19-627 19-207-2-359.5-6.5T336 1512l-49-4-36-4q-36-5-54.5-10t-51-21-56.5-41q-6-6-15.5-18.5t-29-58.5T18 1254q-8-64-12.5-136.5T0 1004V828q-1-145 18-290 7-55 25-99.5T75 377l14-17q14-15 29-26.5t31-19.5 28-13 28.5-8 23.5-4.5 23-3 17-1.5q251-18 627-18z"/></symbol></svg>