<svg xmlns="http://www.w3.org/2000/svg" xmlns:xlink="http://www.w3.org/1999/xlink" width="16" height="21" viewBox="0 0 16 21"><defs><path id="m8coa" d="M594.84 463.4c1.68-.11 1.95.27 1.78.38 0 0-.24.28-1.78-.37zM600 454v.25h-5.33V449h.25a1 1 0 0 1 .7.29l4.09 4.02c.19.18.29.43.29.69zm-7.78 6.4c.19-.76.48-1.9.26-2.63-.2-1.2-1.77-1.09-2-.28-.2.75 0 1.8.34 3.16a38.25 38.25 0 0 1-1.7 3.52c-1.13.57-3.07 1.83-2.27 2.8.23.27.66.4.9.4.74 0 1.48-.74 2.54-2.53 1.07-.35 2.25-.79 3.29-.96.9.49 1.96.8 2.67.8 1.21 0 1.3-1.3.82-1.78-.58-.55-2.27-.4-3.07-.3a4.13 4.13 0 0 1-1.78-2.2zm2.11-4.84H600v13.46c0 .54-.45.98-1 .98h-14c-.55 0-1-.44-1-.98v-19.04c0-.54.45-.98 1-.98h8.33v5.58a1 1 0 0 0 1 .98zm-5.29 9.35c-.9 1.43-1.45 1.68-1.45 1.65.24-.65 1.17-1.4 1.45-1.65zm3.9-1.8c-.99.2-1.85.61-2.62.9.47-.8.87-1.74 1.19-2.57.4.71.9 1.28 1.44 1.67zm-1.36-3.6c-.2-.66-.2-1.93-.08-1.93.35 0 .31 1.51.08 1.92z"/></defs><g><g transform="translate(-584 -449)"><use fill="#0c47a1" xlink:href="#m8coa"/></g></g></svg>