<svg xmlns="http://www.w3.org/2000/svg" xmlns:xlink="http://www.w3.org/1999/xlink" width="20" height="40" viewBox="0 0 20 40"><defs><path id="fsv6a" d="M392 811.25h-.05a6.28 6.28 0 0 1-6.2-6.28c.01-2.66 1.5-4.04 2.5-5.17v-17.3a3.75 3.75 0 0 1 7.5 0v17.3c.99 1.12 2.5 2.52 2.5 5.2 0 3.45-2.8 6.25-6.25 6.25zm7.5-28.75a7.5 7.5 0 0 0-15 0v15.89a9.96 9.96 0 0 0-2.5 6.56A10.03 10.03 0 0 0 392 815a10 10 0 0 0 7.5-16.61z"/></defs><g><g transform="translate(-382 -775)"><use fill="#cfd8dc" xlink:href="#fsv6a"/></g></g></svg>