<svg xmlns="http://www.w3.org/2000/svg" xmlns:xlink="http://www.w3.org/1999/xlink" width="24" height="24" viewBox="0 0 24 24"><defs><path id="9tmga" d="M1471 40.26a5.42 5.42 0 1 1 0 10.84 5.42 5.42 0 0 1 0-10.84zm-6.1 11.1l1.57-.39a6.92 6.92 0 0 0 4.53 1.68c1.68 0 3.27-.6 4.53-1.68l1.57.4a3.2 3.2 0 0 1 2.4 2.72 10.44 10.44 0 0 1-17 0 3.2 3.2 0 0 1 2.4-2.73zM1471 60a12 12 0 1 0 0-24 12 12 0 0 0 0 24z"/></defs><g><g transform="translate(-1459 -36)"><use fill="#cfd8dc" xlink:href="#9tmga"/></g></g></svg>